<?xml version="1.0" encoding="iso-8859-1"?>
<!-- Uploaded to: SVG Repo, www.svgrepo.com, Generator: SVG Repo Mixer Tools -->
<svg fill="#000000" height="800px" width="800px" version="1.1" id="Layer_1" xmlns="http://www.w3.org/2000/svg" xmlns:xlink="http://www.w3.org/1999/xlink" 
	 viewBox="0 0 512 512" xml:space="preserve">
<g>
	<g>
		<g>
			<path d="M349.867,290.133H162.133c-4.71,0-8.533,3.823-8.533,8.533s3.823,8.533,8.533,8.533h187.733
				c4.71,0,8.533-3.823,8.533-8.533S354.577,290.133,349.867,290.133z"/>
			<path d="M349.867,256H162.133c-4.71,0-8.533,3.823-8.533,8.533s3.823,8.533,8.533,8.533h187.733c4.71,0,8.533-3.823,8.533-8.533
				S354.577,256,349.867,256z"/>
			<path d="M409.6,85.333H384c-4.71,0-8.533,3.823-8.533,8.533v273.067c0,4.71,3.823,8.533,8.533,8.533s8.533-3.823,8.533-8.533
				V102.4H409.6c47.053,0,85.333,38.281,85.333,85.333V307.2c0,47.053-38.281,85.333-85.333,85.333H162.133
				c-4.71,0-8.533,3.823-8.533,8.533s3.823,8.533,8.533,8.533H409.6c56.465,0,102.4-45.935,102.4-102.4V187.733
				C512,131.268,466.065,85.333,409.6,85.333z"/>
			<path d="M179.2,68.267c4.71,0,8.533-3.823,8.533-8.533c0-14.114,11.486-25.6,25.6-25.6H281.6c14.114,0,25.6,11.486,25.6,25.6
				c0,4.71,3.823,8.533,8.533,8.533s8.533-3.823,8.533-8.533c0-23.526-19.14-42.667-42.667-42.667h-68.267
				c-23.526,0-42.667,19.14-42.667,42.667C170.667,64.444,174.49,68.267,179.2,68.267z"/>
			<path d="M349.867,324.267H162.133c-4.71,0-8.533,3.823-8.533,8.533s3.823,8.533,8.533,8.533h187.733
				c4.71,0,8.533-3.823,8.533-8.533S354.577,324.267,349.867,324.267z"/>
			<path d="M349.867,221.867H162.133c-4.71,0-8.533,3.823-8.533,8.533c0,4.71,3.823,8.533,8.533,8.533h187.733
				c4.71,0,8.533-3.823,8.533-8.533C358.4,225.69,354.577,221.867,349.867,221.867z"/>
			<path d="M128,119.467c-4.71,0-8.533,3.823-8.533,8.533v264.533H102.4c-47.053,0-85.333-38.281-85.333-85.333V187.733
				c0-47.053,38.281-85.333,85.333-85.333h247.467c4.71,0,8.533-3.823,8.533-8.533s-3.823-8.533-8.533-8.533H102.4
				C45.935,85.333,0,131.268,0,187.733V307.2c0,56.465,45.935,102.4,102.4,102.4H128c4.71,0,8.533-3.823,8.533-8.533V128
				C136.533,123.29,132.71,119.467,128,119.467z"/>
			<path d="M349.867,358.4H162.133c-4.71,0-8.533,3.823-8.533,8.533s3.823,8.533,8.533,8.533h187.733
				c4.71,0,8.533-3.823,8.533-8.533S354.577,358.4,349.867,358.4z"/>
			<path d="M205.056,435.2c0-4.71-3.814-8.533-8.533-8.533h-0.085c-4.71,0-8.491,3.823-8.491,8.533s3.866,8.533,8.576,8.533
				C201.242,443.733,205.056,439.91,205.056,435.2z"/>
			<path d="M349.867,426.667c-4.71,0-8.533,3.823-8.533,8.533v17.067c0,14.114-11.486,25.6-25.6,25.6H196.267
				c-14.114,0-25.6-11.486-25.6-25.6V435.2c0-4.71-3.823-8.533-8.533-8.533c-4.71,0-8.533,3.823-8.533,8.533v17.067
				c0,23.526,19.14,42.667,42.667,42.667h119.467c23.526,0,42.667-19.14,42.667-42.667V435.2
				C358.4,430.49,354.577,426.667,349.867,426.667z"/>
			<path d="M349.867,187.733H162.133c-4.71,0-8.533,3.823-8.533,8.533s3.823,8.533,8.533,8.533h187.733
				c4.71,0,8.533-3.823,8.533-8.533S354.577,187.733,349.867,187.733z"/>
			<path d="M324.523,435.2c0-4.71-3.814-8.533-8.533-8.533h-0.085c-4.71,0-8.491,3.823-8.491,8.533s3.866,8.533,8.576,8.533
				C320.708,443.733,324.523,439.91,324.523,435.2z"/>
			<path d="M349.867,119.467H162.133c-4.71,0-8.533,3.823-8.533,8.533s3.823,8.533,8.533,8.533h187.733
				c4.71,0,8.533-3.823,8.533-8.533S354.577,119.467,349.867,119.467z"/>
			<path d="M349.867,153.6H162.133c-4.71,0-8.533,3.823-8.533,8.533c0,4.71,3.823,8.533,8.533,8.533h187.733
				c4.71,0,8.533-3.823,8.533-8.533C358.4,157.423,354.577,153.6,349.867,153.6z"/>
		</g>
	</g>
</g>
</svg>