<svg xmlns="http://www.w3.org/2000/svg" width="800" height="800" viewBox="0 0 501.35 501.35" xml:space="preserve"><path d="M413.959 130.672c-28.105 0-50.974-22.869-50.974-50.979 0-28.112 22.868-50.979 50.974-50.979s50.974 22.866 50.974 50.979c0 28.111-22.868 50.979-50.974 50.979zm0-92.394c-22.831 0-41.415 18.58-41.415 41.42 0 22.838 18.584 41.42 41.415 41.42 22.836 0 41.416-18.582 41.416-41.42 0-22.84-18.58-41.42-41.416-41.42zM281.107 169.895l77.79-50.649a2.39 2.39 0 0 0-2.604-4.005l-77.791 50.647a2.393 2.393 0 0 0-.7 3.309 2.4 2.4 0 0 0 2.007 1.083c.443 0 .896-.124 1.298-.385zm79.35-129.249a2.394 2.394 0 0 0-.485-3.344l-10.991-8.235a2.404 2.404 0 0 0-3.347.483 2.391 2.391 0 0 0 .485 3.346l10.991 8.233c.43.322.929.478 1.433.478a2.41 2.41 0 0 0 1.914-.961zm32.263-22.852a2.384 2.384 0 0 0 1.572-2.987l-4.047-13.124c-.387-1.262-1.73-1.958-2.986-1.582a2.387 2.387 0 0 0-1.577 2.987l4.051 13.124a2.383 2.383 0 0 0 2.282 1.687c.229-.004.467-.032.705-.105zm42.569-1.022 4.447-12.996a2.392 2.392 0 0 0-1.488-3.034c-1.256-.42-2.614.238-3.034 1.491l-4.443 12.993a2.392 2.392 0 0 0 2.258 3.164 2.378 2.378 0 0 0 2.26-1.618zm32.015 25.697 11.229-7.911a2.392 2.392 0 0 0 .574-3.33 2.396 2.396 0 0 0-3.327-.579l-11.229 7.911a2.398 2.398 0 0 0-.578 3.33 2.4 2.4 0 0 0 1.955 1.013c.48 0 .956-.137 1.376-.434zm26.944 37.449a2.385 2.385 0 0 0-2.348-2.422l-13.73-.208h-.037a2.392 2.392 0 0 0-2.39 2.357 2.384 2.384 0 0 0 2.347 2.422l13.731.208h.037a2.393 2.393 0 0 0 2.39-2.357zm-16.364 48.288a2.394 2.394 0 0 0-.48-3.346l-10.991-8.233a2.4 2.4 0 0 0-3.346.481 2.394 2.394 0 0 0 .48 3.346l10.991 8.235c.434.319.934.479 1.438.479a2.422 2.422 0 0 0 1.908-.962zm-.139 196.127a2.38 2.38 0 0 0 1.722-2.902L433.823 141.66a2.38 2.38 0 0 0-2.903-1.729 2.383 2.383 0 0 0-1.722 2.905l45.644 179.767a2.383 2.383 0 0 0 2.315 1.802c.191-.002.391-.026.588-.072zm-135.598-61.526 50.545-120.131a2.39 2.39 0 0 0-4.406-1.853l-50.549 120.13a2.4 2.4 0 0 0 1.278 3.132c.299.121.621.182.93.182.928 0 1.819-.546 2.202-1.46zM75.648 97.119l269.896-16.657a2.393 2.393 0 0 0 2.236-2.532c-.089-1.314-1.135-2.298-2.535-2.238L75.351 92.349a2.39 2.39 0 0 0 .15 4.775c.041-.001.095-.005.147-.005zM360.46 40.646a2.394 2.394 0 0 0-.485-3.344l-10.99-8.24a2.394 2.394 0 0 0-3.347.479 2.391 2.391 0 0 0 .485 3.346l10.991 8.237a2.388 2.388 0 0 0 3.346-.478zm32.264-22.852a2.389 2.389 0 0 0 1.578-2.987l-4.057-13.124a2.395 2.395 0 0 0-2.986-1.578 2.385 2.385 0 0 0-1.577 2.987l4.056 13.124a2.383 2.383 0 0 0 2.986 1.578zm42.573-1.012 4.443-13a2.395 2.395 0 0 0-1.498-3.033c-1.228-.425-2.604.243-3.034 1.491l-4.438 12.998a2.396 2.396 0 0 0 2.264 3.164 2.398 2.398 0 0 0 2.263-1.62zm31.997 25.692 11.238-7.908a2.391 2.391 0 0 0 .574-3.328 2.386 2.386 0 0 0-3.327-.579l-11.238 7.911a2.394 2.394 0 0 0-.579 3.325 2.383 2.383 0 0 0 1.956 1.013 2.39 2.39 0 0 0 1.376-.434zM364.862 199.673a7.16 7.16 0 0 0-6.581-4.327L26.534 159.307c-.04 0-.068.009-.096.009a7.198 7.198 0 0 0-1.596.206c-.14.035-.282.098-.411.135a6.652 6.652 0 0 0-1.108.439c-.177.086-.336.187-.502.287-.149.096-.308.159-.459.264l-12.263 8.76a7.173 7.173 0 0 0-2.371 8.76l105.269 251.436a7.16 7.16 0 0 0 6.543 4.243h143.936l7.001 23.666-52.631 35.083a4.79 4.79 0 0 0-1.82 5.685 4.79 4.79 0 0 0 5.148 3.023l104.916-14.985 78.174-16.069a4.782 4.782 0 0 0-.737-9.46l-73.618-3.486v-23.456h124.387a.363.363 0 0 0 .094 0 7.162 7.162 0 0 0 7.168-7.169c0-1.409-.401-2.73-1.105-3.837l-95.591-223.168zm61.414 179.857-58.544-2.123-10.641-7.393-10.608-25.109 5.671-7.191 57.456 2.894 16.666 38.922zm-139.555-5.069-10.007-6.949-11.294-26.729 5.643-7.149 58.189 2.931 11.761 7.673 10.939 25.894-6.029 6.478-59.202-2.149zm40.594-42.778-58.712-2.959-11.724-8.148-11.898-28.147 5.738-7.28 59.122 3.837 10.795 7.042 12.447 29.468-5.768 6.187zm-20.656-47.706-59.297-3.837-10.725-7.453-12.303-29.118 4.919-6.237 61.197 4.788 10.249 6.681 12.078 28.604-6.118 6.572zm-75.094-10.996-5.386 5.787-65.899-4.271-11.292-7.854-12.664-29.909 4.963-6.284 68.224 5.337 8.755 5.712 13.299 31.482zm-68.57 6.487 64.648 4.187 11.651 7.607 12.702 30.061-5.843 6.277-66.254-3.337-9.243-6.418-13.243-31.292 5.582-7.085zm21.309 49.798 65.087 3.276 10.148 6.627 12.358 29.216-4.993 5.357-66.245-2.408-10.419-7.238-11.665-27.568 5.729-7.262zm223.22 6.449-59.021-2.973-10.123-7.038-12.204-28.861 5.115-6.473 58.437 3.785 17.796 41.56zm-19.91-46.493-58.124-3.762-11.499-7.99-11.495-27.229 5.092-6.462 58.534 4.583 17.492 40.86zm-34.051-79.543 14.436 33.722-57.484-4.497-12.48-8.669-11.724-27.743 67.252 7.187zm-72.686-7.771 12.2 28.871-5.871 6.293-57.706-4.511-13.915-9.667-12.379-29.291 77.671 8.305zm-83.108-8.884 13.133 31.064-6.095 6.543-65.631-5.138-10.799-7.498-14.368-33.927 83.76 8.956zm-158.844-16.99 69.651 7.451 14.347 33.869-5.964 6.405-59.897-4.688-18.137-43.037zm20.229 47.992 59.907 4.683 11.987 7.829 12.946 30.567-5.572 5.979-60.227-3.893-19.041-45.165zm21.117 50.089 60.324 3.906 11.08 7.229 13.504 31.895-5.668 6.086-59.813-3.015-19.427-46.101zm21.494 50.993 58.835 2.963 12.732 8.312 12.006 28.343-5.454 5.853-59.876-2.18-18.243-43.291zm39.782 94.4-19.49-46.25 59.738 2.17 11.146 7.267 15.59 36.81h-66.984v.003zm72.164 0-14.953-35.33 6.235-7.905 62.821 2.282 11.574 7.556 14.122 33.397h-79.799zm26.953 69.354 35.836-23.887 31.651 14.254-67.487 9.633zm79.678-14.618-19.405-8.746 19.405.92v7.826zm0-17.394-40.669-1.928-6.234-21.076h46.898v23.004h.005zm44.777 11.686-35.218 7.248v-8.909l35.218 1.661zm-66.422-49.028-13.376-31.652 6.65-8.424 56.938 2.072 10.837 7.07 13.068 30.934h-74.117zm79.307 0-12.647-29.939 5.73-7.262 57.274 2.086 15.028 35.115h-65.385z"/></svg>