<svg height="800" width="800" xmlns="http://www.w3.org/2000/svg" viewBox="0 0 458.292 458.292" xml:space="preserve"><path style="fill:#191918" d="M419.902 22.875c-2.04-7.887-7.029-14.508-14.049-18.643-7.019-4.134-15.226-5.289-23.116-3.248L233.644 39.56V25.792a4.5 4.5 0 0 0-9 0V39.56L75.55.985C67.663-1.057 59.453.098 52.433 4.233S40.424 14.988 38.384 22.876l-.69 4.47c-.555 10.5 6.335 20.319 16.9 23.051 1.886.488 3.796.729 5.694.729 3.979 0 7.904-1.062 11.424-3.134a22.424 22.424 0 0 0 8.841-9.561l11.404 2.949c2.547.659 5.127.985 7.689.985 5.375 0 10.674-1.433 15.427-4.233 5.707-3.361 10.072-8.367 12.601-14.36l53.662 13.881v3.797a46.587 46.587 0 0 0-5.56-.344 4.5 4.5 0 0 0 0 9c20.678 0 37.5 16.822 37.5 37.5a4.5 4.5 0 0 0 9 0c0-1.781-.111-3.535-.306-5.264h2.674v116.697c-2.469.782-4.753 2.163-6.674 4.08-3.194 3.188-5.026 7.57-5.026 12.023v211.643c-9.259 2.06-16.201 10.338-16.201 20.208v11.299h65.402v-11.299c0-9.87-6.942-18.149-16.201-20.208V214.792c0-4.414-1.715-8.559-4.828-11.672a16.368 16.368 0 0 0-7.472-4.273V82.343h2.674a46.694 46.694 0 0 0-.306 5.264 4.5 4.5 0 0 0 9 0c0-20.678 16.822-37.5 37.5-37.5a4.5 4.5 0 0 0 0-9c-1.883 0-3.736.125-5.561.344v-3.797l53.686-13.887c4.796 11.312 15.96 18.59 28.061 18.59 2.521 0 5.082-.315 7.633-.976l11.403-2.949a22.432 22.432 0 0 0 8.842 9.561 22.45 22.45 0 0 0 17.118 2.405 22.435 22.435 0 0 0 13.805-10.403 22.423 22.423 0 0 0 3.097-12.649l-.694-4.471zM67.144 40.237a13.493 13.493 0 0 1-10.296 1.447c-5.723-1.48-9.64-6.421-10.121-12.002l24.796 6.413a13.516 13.516 0 0 1-4.379 4.142zm43.362-9.859a21.354 21.354 0 0 1-16.295 2.29L48.678 20.89A21.35 21.35 0 0 1 57 11.988a21.364 21.364 0 0 1 16.296-2.29l45.532 11.777a21.358 21.358 0 0 1-8.322 8.903zm79.83 13.076v-3.473l34.308 8.875v24.486h-4.614c-4.552-14.085-15.65-25.245-29.694-29.888zm62.809 403.539v2.299h-47.402v-2.299c0-6.452 5.249-11.701 11.701-11.701h24c6.452 0 11.701 5.249 11.701 11.701zm-16.201-232.201v211.5h-15v-211.15c0-2.08.869-4.14 2.385-5.652 1.42-1.417 3.236-2.197 5.117-2.197h.013a7.46 7.46 0 0 1 5.294 2.192 7.457 7.457 0 0 1 2.191 5.307zM267.95 43.454c-14.043 4.643-25.141 15.803-29.692 29.888h-4.614V48.856l34.307-8.875v3.473zm96.126-10.787a21.36 21.36 0 0 1-16.296-2.29 21.358 21.358 0 0 1-8.322-8.903l45.533-11.777a21.355 21.355 0 0 1 16.295 2.29 21.356 21.356 0 0 1 8.322 8.902l-45.532 11.778zm45.667 2.759a13.5 13.5 0 0 1-8.304 6.258 13.497 13.497 0 0 1-10.297-1.447 13.516 13.516 0 0 1-4.379-4.142l24.802-6.415a13.506 13.506 0 0 1-1.822 5.746z"/></svg>