<?xml version="1.0" encoding="iso-8859-1"?>
<!-- Uploaded to: SVG Repo, www.svgrepo.com, Generator: SVG Repo Mixer Tools -->
<!DOCTYPE svg PUBLIC "-//W3C//DTD SVG 1.1//EN" "http://www.w3.org/Graphics/SVG/1.1/DTD/svg11.dtd">
<svg height="800px" width="800px" version="1.1" id="Capa_1" xmlns="http://www.w3.org/2000/svg" xmlns:xlink="http://www.w3.org/1999/xlink" 
	 viewBox="0 0 458.292 458.292" xml:space="preserve">
<path style="fill:#191918;" d="M419.902,22.875c-2.04-7.887-7.029-14.508-14.049-18.643c-7.019-4.134-15.226-5.289-23.116-3.248
	L233.644,39.56V25.792c0-2.485-2.015-4.5-4.5-4.5s-4.5,2.015-4.5,4.5V39.56L75.55,0.985c-7.887-2.042-16.097-0.887-23.117,3.248
	c-7.02,4.135-12.009,10.755-14.049,18.643l-0.69,4.47c-0.555,10.5,6.335,20.319,16.9,23.051c1.886,0.488,3.796,0.729,5.694,0.729
	c3.979,0,7.904-1.062,11.424-3.134c3.88-2.286,6.92-5.599,8.841-9.561l11.404,2.949c2.547,0.659,5.127,0.985,7.689,0.985
	c5.375,0,10.674-1.433,15.427-4.233c5.707-3.361,10.072-8.367,12.601-14.36l53.662,13.881v3.797
	c-1.824-0.219-3.677-0.344-5.56-0.344c-2.485,0-4.5,2.015-4.5,4.5s2.015,4.5,4.5,4.5c20.678,0,37.5,16.822,37.5,37.5
	c0,2.485,2.015,4.5,4.5,4.5s4.5-2.015,4.5-4.5c0-1.781-0.111-3.535-0.306-5.264h2.674v116.697c-2.469,0.782-4.753,2.163-6.674,4.08
	c-3.194,3.188-5.026,7.57-5.026,12.023v211.643c-9.259,2.06-16.201,10.338-16.201,20.208v11.299h65.402v-11.299
	c0-9.87-6.942-18.149-16.201-20.208V214.792c0-4.414-1.715-8.559-4.828-11.672c-2.097-2.097-4.67-3.542-7.472-4.273V82.343h2.674
	c-0.196,1.729-0.306,3.484-0.306,5.264c0,2.485,2.015,4.5,4.5,4.5s4.5-2.015,4.5-4.5c0-20.678,16.822-37.5,37.5-37.5
	c2.485,0,4.5-2.015,4.5-4.5s-2.015-4.5-4.5-4.5c-1.883,0-3.736,0.125-5.561,0.344v-3.797l53.686-13.887
	c4.796,11.312,15.96,18.59,28.061,18.59c2.521,0,5.082-0.315,7.633-0.976l11.403-2.949c1.922,3.962,4.962,7.275,8.842,9.561
	c3.52,2.073,7.443,3.134,11.424,3.134c1.897,0,3.809-0.242,5.694-0.729c5.841-1.51,10.743-5.205,13.805-10.403
	c2.285-3.88,3.338-8.252,3.097-12.649L419.902,22.875z M67.144,40.237c-3.127,1.842-6.785,2.356-10.296,1.447
	c-5.723-1.48-9.64-6.421-10.121-12.002l24.796,6.413C70.404,37.766,68.928,39.186,67.144,40.237z M110.506,30.378
	c-4.946,2.915-10.732,3.728-16.295,2.29L48.678,20.89c1.834-3.684,4.693-6.765,8.322-8.902c4.948-2.915,10.737-3.727,16.296-2.29
	l45.532,11.777C116.994,25.159,114.135,28.24,110.506,30.378z M190.336,43.454v-3.473l34.308,8.875v24.486h-4.614
	C215.478,59.257,204.38,48.097,190.336,43.454z M253.145,446.993v2.299h-47.402v-2.299c0-6.452,5.249-11.701,11.701-11.701h4.5h15
	h4.5C247.896,435.292,253.145,440.541,253.145,446.993z M236.944,214.792v211.5h-15v-211.15c0-2.08,0.869-4.14,2.385-5.652
	c1.42-1.417,3.236-2.197,5.117-2.197c0.004,0,0.009,0,0.013,0c2.004,0.004,3.884,0.783,5.294,2.192
	C236.165,210.898,236.944,212.783,236.944,214.792z M267.95,43.454c-14.043,4.643-25.141,15.803-29.692,29.888h-4.614V48.856
	l34.307-8.875V43.454z M364.076,32.667c-5.559,1.438-11.348,0.625-16.296-2.29c-3.629-2.138-6.488-5.219-8.322-8.903l45.533-11.777
	c5.562-1.438,11.347-0.625,16.295,2.29c3.629,2.138,6.488,5.218,8.322,8.902L364.076,32.667z M409.743,35.426
	c-1.842,3.126-4.79,5.349-8.304,6.258c-3.511,0.908-7.169,0.396-10.297-1.447c-1.784-1.051-3.26-2.471-4.379-4.142l24.802-6.415
	C411.397,31.684,410.794,33.642,409.743,35.426z"/>
</svg>